<?xml version="1.0" standalone="no"?>
<!DOCTYPE svg PUBLIC "-//W3C//DTD SVG 20010904//EN"
 "http://www.w3.org/TR/2001/REC-SVG-20010904/DTD/svg10.dtd">
<svg version="1.0" xmlns="http://www.w3.org/2000/svg"
 width="508.000000pt" height="508.000000pt" viewBox="0 0 508.000000 508.000000"
 preserveAspectRatio="xMidYMid meet">
<metadata>
Created by potrace 1.14, written by Peter Selinger 2001-2017
</metadata>
<g transform="translate(0.000000,508.000000) scale(0.100000,-0.100000)"
fill="#000000" stroke="none">
<path d="M3020 5063 c-57 -19 -106 -57 -135 -103 -13 -20 -46 -108 -75 -196
-29 -87 -65 -197 -80 -244 -15 -47 -78 -240 -140 -430 -61 -190 -127 -394
-147 -455 -39 -119 -68 -178 -105 -212 -41 -37 -100 -65 -152 -70 -28 -2 -384
-5 -791 -6 l-740 -2 -47 -23 c-169 -83 -202 -338 -60 -452 20 -16 291 -213
602 -439 311 -225 577 -420 592 -433 16 -13 41 -50 58 -82 48 -94 44 -128 -49
-410 -43 -133 -123 -376 -176 -541 -54 -165 -122 -374 -152 -465 -66 -200 -71
-258 -29 -344 59 -121 201 -182 328 -140 32 11 214 137 570 396 314 228 551
394 593 414 129 62 190 71 468 73 136 1 257 5 270 10 79 30 93 144 24 195 -27
20 -40 21 -415 21 -349 1 -390 2 -413 18 -73 49 -59 173 23 194 51 14 923 8
982 -6 73 -18 183 -72 259 -129 80 -60 145 -84 225 -83 192 1 344 166 329 357
-15 185 -168 320 -351 309 -74 -4 -141 -33 -241 -105 -139 -99 -202 -109 -678
-111 -342 0 -390 -3 -456 -20 -80 -20 -171 -66 -246 -124 -67 -50 -109 -66
-195 -72 -86 -6 -155 15 -222 69 -200 158 -149 478 92 569 44 17 69 20 130 16
89 -6 127 -21 206 -81 79 -59 152 -95 238 -117 59 -15 116 -18 386 -19 311 0
317 0 345 21 63 50 64 137 3 181 -30 21 -42 22 -213 23 -154 1 -186 4 -208 18
-68 44 -69 139 -1 184 33 21 143 24 244 5 88 -16 195 -63 265 -117 81 -63 149
-89 230 -89 93 -1 164 26 230 86 139 126 146 342 17 475 -126 130 -307 140
-457 25 -81 -62 -155 -99 -244 -122 -66 -17 -114 -19 -397 -20 -283 0 -332 -3
-397 -20 -87 -22 -162 -57 -232 -110 -101 -75 -175 -99 -271 -88 -162 18 -280
144 -292 310 -9 133 63 255 188 316 47 23 68 27 140 27 98 0 146 -18 231 -85
70 -55 135 -87 225 -110 66 -17 116 -19 488 -20 282 0 422 3 438 11 55 24 77
111 42 164 -32 48 -36 49 -444 50 -415 1 -417 1 -445 55 -32 62 -9 129 52 152
51 19 884 19 978 -1 72 -15 205 -77 260 -121 74 -60 140 -84 230 -84 65 0 90
4 136 26 274 127 256 519 -28 620 -107 38 -255 9 -335 -67 -35 -33 -140 -89
-203 -108 -77 -24 -122 -27 -382 -28 -203 0 -246 3 -266 16 -47 30 -64 93 -40
144 25 50 59 59 241 59 185 1 213 9 266 74 44 56 46 118 8 233 -17 50 -85 259
-153 465 -67 206 -137 422 -155 479 -38 116 -61 158 -106 196 -67 56 -184 77
-268 48z m1350 -1741 c29 -22 49 -73 42 -109 -2 -13 -18 -37 -34 -53 -23 -23
-39 -30 -69 -30 -49 0 -71 11 -94 47 -67 101 57 216 155 145z m-337 -884 c20
-11 47 -66 47 -97 0 -56 -53 -101 -120 -101 -24 0 -41 9 -64 33 -36 39 -42 75
-20 122 27 57 95 76 157 43z m326 -892 c76 -40 70 -150 -9 -191 -95 -49 -196
72 -134 159 31 45 92 58 143 32z"/>
<path d="M2188 2663 c-60 -37 -65 -112 -12 -181 1 -2 19 -10 40 -17 70 -24
144 26 144 97 0 96 -93 150 -172 101z"/>
<path d="M2387 1770 c-31 -25 -51 -80 -42 -120 15 -68 111 -103 172 -63 29 19
54 69 48 99 -2 10 -4 25 -4 32 -1 8 -15 27 -32 43 -39 36 -102 40 -142 9z"/>
</g>
</svg>
